<?xml version="1.0" standalone="no"?>
<!DOCTYPE svg PUBLIC "-//W3C//DTD SVG 20010904//EN"
 "http://www.w3.org/TR/2001/REC-SVG-20010904/DTD/svg10.dtd">
<svg version="1.0" xmlns="http://www.w3.org/2000/svg"
 width="215.000000pt" height="234.000000pt" viewBox="0 0 215.000000 234.000000"
 preserveAspectRatio="xMidYMid meet">
<metadata>
Created by potrace 1.15, written by Peter Selinger 2001-2017
</metadata>
<g transform="translate(0.000000,234.000000) scale(0.100000,-0.100000)"
fill="#000000" stroke="none">
<path d="M1750 2329 c-74 -8 -120 -29 -173 -78 -79 -73 -107 -175 -107 -391 0
-221 28 -320 112 -395 61 -55 125 -77 225 -77 144 0 238 54 295 169 31 63 33
73 36 200 l4 133 -156 0 -156 0 0 -55 0 -55 90 0 90 0 0 -51 c0 -120 -55 -198
-153 -219 -112 -23 -209 31 -238 132 -17 58 -17 378 0 436 14 48 60 106 104
129 41 21 135 19 182 -3 21 -10 52 -37 68 -61 33 -46 33 -46 104 -17 41 17 41
30 4 81 -70 96 -184 138 -331 122z"/>
<path d="M238 1763 l-238 -3 0 -34 c0 -33 0 -33 66 -44 73 -12 105 -29 131
-69 17 -25 18 -74 18 -708 0 -622 -1 -683 -17 -711 -21 -38 -65 -60 -140 -69
l-58 -7 0 -37 0 -36 340 3 340 3 0 32 0 33 -85 12 c-100 13 -119 22 -142 65
-16 28 -18 68 -21 336 l-3 304 23 -7 c13 -3 62 -6 109 -6 l86 0 73 -122 c148
-250 311 -479 394 -556 89 -82 243 -132 362 -118 77 9 84 13 84 52 0 31 -3 34
-28 34 -16 0 -58 14 -93 32 -83 41 -185 145 -319 324 -86 114 -250 362 -250
378 0 2 22 12 49 21 110 36 235 144 287 247 92 181 62 391 -73 519 -57 54
-122 88 -218 115 -67 18 -258 23 -677 17z m502 -114 c166 -27 267 -125 289
-284 24 -171 -55 -324 -202 -391 -59 -27 -71 -29 -229 -32 l-168 -4 0 355 0
356 48 4 c101 8 200 6 262 -4z"/>
</g>
</svg>
